<?xml version="1.0" standalone="no"?>
<!DOCTYPE svg PUBLIC "-//W3C//DTD SVG 20010904//EN"
 "http://www.w3.org/TR/2001/REC-SVG-20010904/DTD/svg10.dtd">
<svg version="1.0" xmlns="http://www.w3.org/2000/svg"
 width="1000.000000pt" height="1000.000000pt" viewBox="0 0 1000.000000 1000.000000"
 preserveAspectRatio="xMidYMid meet">
<metadata>
Created by potrace 1.11, written by Peter Selinger 2001-2013
</metadata>
<g transform="translate(0.000000,1000.000000) scale(0.100000,-0.100000)"
fill="#000000" stroke="none">
<path d="M7424 5581 c-2 -2 -4 -220 -4 -483 l0 -478 203 0 c225 0 258 8 309
68 41 49 50 114 46 322 -3 179 -4 186 -30 230 -16 28 -42 55 -70 70 -39 22
-57 25 -180 28 l-138 4 0 118 0 118 -66 4 c-36 1 -68 1 -70 -1z m396 -418 c20
-26 21 -36 18 -196 -4 -214 2 -207 -164 -207 l-114 0 0 215 0 215 119 0 c118
0 120 0 141 -27z"/>
<path d="M9423 5582 l-63 -3 0 -479 0 -480 70 0 70 0 0 150 0 150 119 0 c98 0
121 -3 132 -17 10 -11 15 -55 17 -150 l4 -133 69 0 69 0 0 135 c0 140 -10 186
-48 228 -32 36 -88 57 -152 57 -33 0 -60 3 -59 8 0 4 68 68 149 142 82 74 149
138 149 143 1 4 -38 7 -87 7 l-87 0 -130 -130 c-71 -71 -133 -130 -137 -130
-5 0 -8 112 -8 249 0 138 -3 251 -7 253 -5 2 -36 2 -70 0z"/>
<path d="M2902 5103 l3 -478 68 -3 67 -3 0 481 0 480 -70 0 -70 0 2 -477z"/>
<path d="M6402 5168 c3 -390 4 -404 24 -443 43 -79 93 -105 204 -105 l80 0 0
65 0 65 -50 0 c-62 0 -99 16 -108 49 -4 14 -7 112 -7 216 l0 190 85 5 85 5 0
60 0 60 -87 3 -88 3 0 114 0 115 -71 0 -70 0 3 -402z"/>
<path d="M5097 5333 c-4 -3 -7 -165 -7 -360 l0 -353 70 0 70 0 0 238 c0 238 7
308 32 323 7 5 63 9 125 9 104 0 113 -1 127 -22 14 -19 16 -64 16 -285 l0
-263 70 0 70 0 0 278 c0 162 -4 293 -11 315 -14 51 -63 104 -107 117 -70 19
-242 11 -304 -15 -13 -5 -18 -2 -18 9 0 13 -12 16 -63 16 -35 0 -67 -3 -70 -7z"/>
<path d="M5902 5330 c-61 -13 -97 -37 -124 -84 -21 -38 -23 -54 -26 -225 -5
-216 2 -278 31 -322 43 -64 74 -74 247 -77 146 -3 158 -2 199 20 83 43 107
139 98 395 -4 134 -7 158 -28 200 -37 74 -88 95 -237 99 -65 2 -136 -1 -160
-6z m262 -156 c24 -23 24 -375 0 -398 -12 -13 -39 -16 -123 -16 -153 0 -145
-11 -149 205 -4 234 -10 225 143 225 90 0 117 -3 129 -16z"/>
<path d="M6955 5336 c-5 -2 -22 -7 -38 -10 -47 -11 -105 -72 -122 -129 -18
-61 -21 -370 -4 -432 15 -56 54 -104 103 -126 35 -16 67 -19 234 -19 l192 0 0
70 0 70 -175 0 c-173 0 -176 0 -200 25 -20 19 -25 34 -25 75 l0 50 211 0 211
0 -4 143 c-4 171 -19 209 -95 254 -42 25 -57 27 -162 30 -64 1 -120 1 -126 -1z
m219 -157 c23 -18 26 -28 26 -80 l0 -59 -140 0 -140 0 0 55 c0 46 4 60 25 80
22 23 32 25 113 25 75 0 93 -3 116 -21z"/>
<path d="M8206 5330 c-65 -12 -95 -35 -126 -96 -24 -48 -25 -55 -25 -259 0
-193 2 -214 21 -256 14 -30 35 -54 60 -70 37 -23 47 -24 211 -24 196 0 206 4
253 86 24 42 25 53 29 234 3 213 -6 278 -47 326 -14 18 -42 38 -62 47 -42 18
-240 25 -314 12z m271 -170 c9 -17 13 -78 13 -192 0 -214 5 -208 -147 -208
-151 0 -143 -12 -143 220 0 134 3 189 12 198 9 9 48 12 133 10 116 -3 120 -4
132 -28z"/>
<path d="M8856 5330 c-65 -12 -95 -35 -126 -96 -24 -48 -25 -55 -25 -259 0
-193 2 -214 21 -256 14 -30 35 -54 60 -70 37 -23 47 -24 211 -24 198 0 209 4
253 91 23 46 25 60 28 230 5 262 -15 333 -108 372 -42 18 -240 25 -314 12z
m271 -170 c9 -17 13 -78 13 -192 0 -215 5 -208 -148 -208 -152 0 -147 -8 -147
219 0 138 3 182 14 195 12 14 31 16 135 14 117 -3 121 -4 133 -28z"/>
<path d="M20 4870 l0 -460 65 0 65 0 0 105 0 105 118 0 c177 0 231 22 273 108
20 41 24 66 27 188 7 243 -22 348 -108 392 -41 21 -57 22 -242 22 l-198 0 0
-460z m387 307 c16 -15 18 -41 21 -197 4 -230 11 -220 -158 -220 l-120 0 0
221 0 221 120 -3 c98 -3 122 -7 137 -22z"/>
<path d="M765 5316 c-38 -17 -70 -48 -92 -89 -15 -27 -19 -64 -21 -228 -2
-129 1 -211 8 -240 15 -55 72 -113 125 -128 22 -6 119 -11 218 -11 l177 0 0
70 0 70 -179 0 -180 0 -20 26 c-15 20 -21 41 -21 80 l0 54 210 0 210 0 0 118
c0 64 -5 134 -11 155 -14 52 -72 114 -117 127 -55 15 -271 12 -307 -4z m284
-142 c15 -20 21 -41 21 -80 l0 -54 -145 0 -145 0 0 54 c0 39 6 60 21 80 20 25
24 26 124 26 100 0 104 -1 124 -26z"/>
<path d="M1290 4975 l0 -355 65 0 64 0 3 270 c4 323 -4 305 123 305 127 0 119
18 123 -305 l3 -270 64 0 65 0 0 265 0 266 26 25 c23 24 30 26 104 22 121 -5
114 12 118 -308 l3 -270 65 0 65 0 -3 293 c-3 290 -3 292 -28 337 -36 65 -73
80 -193 80 -106 0 -154 -13 -180 -50 -15 -22 -15 -22 -26 -2 -6 11 -26 27 -45
36 -45 21 -202 22 -251 2 -31 -13 -35 -13 -35 0 0 11 -15 14 -65 14 l-65 0 0
-355z"/>
<path d="M2300 5266 l0 -64 171 -4 c166 -3 171 -4 190 -27 12 -15 19 -39 19
-67 l0 -44 -159 0 c-148 0 -160 -1 -192 -23 -54 -36 -69 -77 -69 -191 0 -116
19 -169 72 -201 30 -18 55 -20 256 -23 l223 -3 -3 288 c-3 327 -7 342 -81 391
-40 27 -44 27 -234 30 l-193 3 0 -65z m380 -421 l0 -95 -134 0 c-103 0 -136 3
-145 14 -17 21 -18 140 -2 160 11 13 37 16 147 16 l134 0 0 -95z"/>
<path d="M3160 5266 l0 -64 170 -4 c196 -4 206 -8 212 -88 l3 -45 -166 -5
c-179 -5 -200 -11 -236 -67 -15 -22 -18 -49 -18 -149 0 -133 6 -152 69 -198
26 -20 41 -21 253 -21 l225 0 -1 277 c0 229 -3 283 -16 314 -41 99 -80 114
-312 114 l-183 0 0 -64z m382 -421 l-3 -95 -125 0 c-69 0 -134 5 -145 10 -16
9 -19 22 -19 83 0 44 5 78 12 85 8 8 55 12 148 12 l135 0 -3 -95z"/>
<path d="M3770 4975 l0 -355 65 0 65 0 0 264 c0 332 -10 311 154 311 74 0 119
-4 127 -12 22 -22 28 -97 29 -331 l0 -233 63 3 62 3 0 285 c0 285 0 286 -25
334 -38 75 -68 86 -223 86 -95 0 -136 -4 -157 -15 -27 -14 -30 -14 -30 0 0 12
-13 15 -65 15 l-65 0 0 -355z"/>
<path d="M4540 5314 c-46 -20 -68 -41 -94 -89 -19 -37 -21 -55 -21 -220 0
-157 2 -185 19 -215 47 -89 100 -110 278 -110 l118 0 0 -44 c0 -29 -7 -52 -21
-69 -20 -26 -23 -26 -152 -29 l-132 -3 0 -60 0 -60 156 0 c152 0 156 1 196 27
25 17 49 45 64 75 24 48 24 51 27 431 l3 382 -203 0 c-158 -1 -211 -4 -238
-16z m300 -309 l0 -195 -120 0 c-165 0 -160 -6 -160 188 0 203 -4 198 178 201
l102 1 0 -195z"/>
</g>
</svg>
