<svg width="23" height="23" viewBox="0 0 23 23" fill="none" xmlns="http://www.w3.org/2000/svg">
<path d="M11.4995 0C5.14855 0 0 5.14901 0 11.4998C0 17.8505 5.14855 23 11.4995 23C17.8505 23 22.9995 17.8508 22.9995 11.4998C22.9995 5.1487 17.8506 0 11.4995 0Z" fill="#FB9702"/>
<path d="M5.63756 8.08097H8.59519C8.68553 7.07939 8.9644 6.17992 9.36504 5.4847C9.89529 4.5656 10.6494 4 11.5018 4C12.3541 4 13.1043 4.56953 13.6385 5.4847C14.0391 6.176 14.318 7.07939 14.4083 8.08097H17.362C17.7116 8.08097 18.0258 8.3677 17.9983 8.71728L17.4052 16.9931C17.3306 18.0301 16.6786 18.6232 15.732 18.6232H7.27152C6.21888 18.6232 5.66113 17.8887 5.59829 16.9931L5.00126 8.7212C4.97769 8.37163 5.28799 8.08097 5.63756 8.08097ZM9.33361 8.08097H13.662C13.5756 7.21293 13.336 6.44309 12.9943 5.85392C12.6015 5.16655 12.0674 4.73842 11.5018 4.73842C10.9322 4.73842 10.402 5.16655 10.0013 5.85784C9.65962 6.44309 9.42395 7.21686 9.33361 8.08097Z" fill="white"/>
<path d="M9.35326 15.7204C9.21578 15.6261 9.18043 15.4415 9.2747 15.304C9.36897 15.1666 9.55357 15.1312 9.69105 15.2255C9.77746 15.2844 9.8678 15.3433 9.96599 15.4022C10.6573 15.8225 11.2936 16.0307 11.8238 16.0307C12.303 16.0307 12.6919 15.85 12.9393 15.4847C12.955 15.4572 12.9708 15.4415 12.9747 15.4297C13.0454 15.3158 13.0964 15.1941 13.1318 15.0762C13.2025 14.8327 13.1907 14.5813 13.0925 14.3535C12.9865 14.1139 12.7822 13.8822 12.4641 13.6897C12.252 13.5601 11.9888 13.4462 11.6707 13.3598C10.8615 13.132 10.2645 12.8099 9.94243 12.3778C9.58892 11.9026 9.56143 11.3291 9.9385 10.6339C10.1899 10.1743 10.7044 9.88762 11.3564 9.83656C11.9181 9.79335 12.5937 9.92689 13.281 10.2765C13.4303 10.3511 13.4892 10.5318 13.4107 10.681C13.3321 10.8303 13.1554 10.8892 13.0061 10.8106C12.4209 10.5121 11.8631 10.3982 11.3996 10.4336C10.9558 10.4689 10.618 10.6418 10.4687 10.9167C10.2174 11.3762 10.2213 11.7376 10.4255 12.0126C10.6612 12.3307 11.1522 12.5782 11.8356 12.7706C12.2048 12.8767 12.5191 13.0102 12.7783 13.1673C13.2064 13.4266 13.4931 13.7526 13.6463 14.1061C13.8034 14.4713 13.8231 14.8563 13.717 15.2333C13.6699 15.4022 13.5953 15.5711 13.4931 15.7361C13.4696 15.7714 13.4539 15.7989 13.4421 15.8186C13.0768 16.3567 12.5151 16.6238 11.8317 16.6277C11.1915 16.6277 10.4452 16.392 9.65962 15.9128C9.56143 15.8579 9.45931 15.795 9.35326 15.7204Z" fill="#FB9702"/>
</svg>
