<svg width="23" height="23" viewBox="0 0 23 23" fill="none" xmlns="http://www.w3.org/2000/svg">
<path d="M11.5029 0H11.4971C5.15631 0 0 5.15775 0 11.5C0 14.0156 0.81075 16.3473 2.18931 18.2404L0.756125 22.5127L5.17644 21.0996C6.99488 22.3043 9.16406 23 11.5029 23C17.8437 23 23 17.8408 23 11.5C23 5.15919 17.8437 0 11.5029 0Z" fill="#0DC314"/>
<path d="M18.1944 16.2394C17.917 17.0229 16.8159 17.6726 15.9376 17.8624C15.3367 17.9903 14.5518 18.0924 11.9097 16.997C8.53012 15.5969 6.35375 12.1627 6.18412 11.9399C6.02168 11.7171 4.8185 10.1214 4.8185 8.4712C4.8185 6.82095 5.65656 6.01739 5.99437 5.67239C6.27181 5.3892 6.73037 5.25983 7.17025 5.25983C7.31256 5.25983 7.4405 5.26701 7.5555 5.27276C7.89331 5.28714 8.06293 5.30726 8.28574 5.84058C8.56318 6.50901 9.23881 8.15926 9.31931 8.32889C9.40124 8.49851 9.48318 8.72851 9.36818 8.95132C9.26037 9.18132 9.16549 9.28338 8.99587 9.47888C8.82624 9.67438 8.66524 9.82388 8.49562 10.0338C8.34037 10.2163 8.165 10.4118 8.36049 10.7496C8.55599 11.0803 9.23162 12.1828 10.2264 13.0683C11.5101 14.2111 12.5508 14.5763 12.9231 14.7315C13.2006 14.8465 13.5312 14.8192 13.7339 14.6036C13.9912 14.3261 14.3089 13.8661 14.6323 13.4133C14.8623 13.0884 15.1527 13.0482 15.4574 13.1632C15.7679 13.271 17.411 14.0832 17.7488 14.2514C18.0866 14.421 18.3094 14.5015 18.3914 14.6438C18.4719 14.7861 18.4719 15.4546 18.1944 16.2394Z" fill="#F0E6E6"/>
</svg>
